<svg id="Capa_1" enable-background="new 0 0 510 510" height="512" viewBox="0 0 510 510" width="512" xmlns="http://www.w3.org/2000/svg"><g><path d="m417.401.094c10.998 13.718 17.599 31.107 17.599 50.016v.372 409.035.372c0 18.91-6.601 36.298-17.599 50.016 26.507-1.544 47.599-23.55 47.599-50.388v-409.035c0-26.837-21.092-48.844-47.599-50.388z"/><g><path d="m200.443 195c1.197 20.401 4.799 39.491 10.289 53.906 6.132 16.095 12.604 21.094 14.268 21.094s8.136-4.999 14.268-21.094c5.491-14.415 9.092-33.505 10.289-53.906z"/><path d="m225 90c-1.664 0-8.136 4.999-14.268 21.094-5.491 14.415-9.092 33.505-10.289 53.906h49.114c-1.197-20.401-4.799-39.491-10.289-53.906-6.132-16.095-12.604-21.094-14.268-21.094z"/><path d="m279.605 165h34.138c-4.699-27.888-22.266-51.461-46.366-64.379 6.756 17.82 10.983 40.263 12.228 64.379z"/><path d="m170.395 165c1.245-24.116 5.472-46.559 12.228-64.379-24.1 12.918-41.667 36.491-46.366 64.379z"/><path d="m353.837 0h-308.837v510h308.837c28.211 0 51.163-22.646 51.163-50.482v-409.036c0-27.836-22.952-50.482-51.163-50.482zm-83.837 435h-90v-30h90zm30-60h-150v-30h150zm-75-75c-66.168 0-120-53.832-120-120s53.832-120 120-120 120 53.832 120 120-53.832 120-120 120z"/><path d="m279.605 195c-1.245 24.116-5.472 46.559-12.228 64.379 24.1-12.918 41.667-36.491 46.366-64.379z"/><path d="m170.395 195h-34.138c4.699 27.888 22.266 51.461 46.366 64.379-6.756-17.82-10.983-40.263-12.228-64.379z"/></g></g></svg>